# xmcd CD database file
#
# Track frame offsets:
#	150
#	20818
#	41460
#	56763
#
# Disc length: 1032 seconds
#
# Revision: 1
# Processed by: cddbd v1.5.2PL0 Copyright (c) Steve Scherf et al.
# Submitted via: CDex 1.40Release
#
DISCID=30040604
DTITLE=FreQuency - Day After Day
DYEAR=2014
DGENRE=Rock
TTITLE0=Day After Day
TTITLE1=Day After Day -instrumental-
TTITLE2=Why don't you Come Down(ACVD DLC Edition)
TTITLE3=Armeria
EXTD=YEAR: 2014 ID3G: 17
EXTT0=
EXTT1=
EXTT2=
EXTT3=
PLAYORDER=
